<svg xmlns="http://www.w3.org/2000/svg" xml:space="preserve" viewBox="0 0 1080.89 1080"><defs><clipPath id="a" clipPathUnits="userSpaceOnUse"><path d="M0 1080h1080V0H0Z"/></clipPath></defs><g clip-path="url(#a)" transform="matrix(1.33333 0 0 -1.33333 -179.556 1248.291)"><path d="M0 0h-372.601l-145.963-310.958a158 158 0 0 1-15.798 21.694S-581.4-321.3-585-383.4h89.1l99.9 213.3h316.8z" style="fill:#000;fill-opacity:1;fill-rule:nonzero;stroke:none" transform="translate(945.333 936.218)"/><path d="M0 0c-25.994 24.112-60.143 39.557-97.849 41.737v-148.234h41.165C-53.984-37.197 0 0 0 0" style="fill:#000;fill-opacity:1;fill-rule:nonzero;stroke:none" transform="translate(399.017 659.315)"/><path d="M0 0h41.42v148.296c-37.91-1.915-72.284-17.235-98.479-41.315C-57.059 106.981-3.6 68.4 0 0" style="fill:#000;fill-opacity:1;fill-rule:nonzero;stroke:none" transform="translate(242.433 552.818)"/><path d="M0 0c-22.34-25.574-36.548-58.435-38.588-94.549l90.646-.024C47.558-35.173 0 0 0 0" style="fill:#000;fill-opacity:1;fill-rule:nonzero;stroke:none" transform="translate(173.275 647.391)"/><path d="m0 0-90.666.338c1.966-36.264 16.199-69.266 38.622-94.927C-52.044-94.589-1.8-57.6 0 0" style="fill:#000;fill-opacity:1;fill-rule:nonzero;stroke:none" transform="translate(225.333 534.818)"/><path d="M0 0c26.218-24.186 60.669-39.58 98.674-41.503v149.196h-41.41C53.664 34.793 0 0 0 0" style="fill:#000;fill-opacity:1;fill-rule:nonzero;stroke:none" transform="translate(185.169 428.025)"/><path d="M0 0h-40.5l-.019-149.096c37.684 2.333 71.78 17.917 97.686 42.149C57.167-106.947 6.3-73.801 0 0" style="fill:#000;fill-opacity:1;fill-rule:nonzero;stroke:none" transform="translate(342.333 535.719)"/><path d="m0 0-88.873.432c2.7-63.901 50.941-94.687 50.941-94.687C-15.884-68.679-1.918-35.938 0 0" style="fill:#000;fill-opacity:1;fill-rule:nonzero;stroke:none" transform="translate(449.206 535.287)"/><path d="M0 0h47.952L-.21-97.581v-25.547l78.106-.209v25.966H29.315L77.896.628v25.547H0Z" style="fill:#000;fill-opacity:1;fill-rule:nonzero;stroke:none" transform="translate(861.406 269.262)"/><path d="M0 0h47.953L-.209-97.581v-25.547l78.106-.209v25.966H29.316L77.897.628v25.547H0Z" style="fill:#000;fill-opacity:1;fill-rule:nonzero;stroke:none" transform="translate(770.526 269.262)"/><path d="m0 0 12.146 49.418L24.29 0Zm-3.351 89.623L-40.624-59.889h26.385l7.748 33.295h36.854l8.794-33.504h25.966L28.06 89.623Z" style="fill:#000;fill-opacity:1;fill-rule:nonzero;stroke:none" transform="translate(698.074 205.814)"/><path d="m0 0 12.146 49.418L24.291 0Zm-3.35 89.623L-40.624-59.889h26.385l7.748 33.294h36.854l8.795-33.504h25.966L28.06 89.623Z" style="fill:#000;fill-opacity:1;fill-rule:nonzero;stroke:none" transform="translate(359.752 205.346)"/><path d="M0 0v-125.64h-35.599v36.855h-26.174v-28.688c0-31.829 30.572-33.505 30.572-33.505h28.897c28.06 3.351 28.479 30.155 28.479 30.155L25.965 0Z" style="fill:#000;fill-opacity:1;fill-rule:nonzero;stroke:none" transform="translate(624.156 295.646)"/><path d="M0 0v-125.64h-35.598V-.209h-26.175v-117.265c0-31.828 30.572-33.504 30.572-33.504h28.898c28.059 3.351 28.478 30.155 28.478 30.155L25.965 0Z" style="fill:#000;fill-opacity:1;fill-rule:nonzero;stroke:none" transform="translate(208.356 294.759)"/><path d="M0 0h-83.341v-26.594h28.688l-.21-122.918h26.384v122.708H0Z" style="fill:#000;fill-opacity:1;fill-rule:nonzero;stroke:none" transform="translate(329.599 294.969)"/><path d="M0 0h-33.923v60.726h-25.966l.21-149.302h25.966v62.401H.209v-62.192h26.175V60.726H0Z" style="fill:#000;fill-opacity:1;fill-rule:nonzero;stroke:none" transform="translate(496.91 234.033)"/></g></svg>